<svg width="364" height="128" viewBox="0 0 364 128" fill="none" xmlns="http://www.w3.org/2000/svg">
<path d="M173.537 84.9017H166.344L155.597 14.4743L155.242 12.0764C154.088 5.4156 150.358 3.19531 146.095 3.19531C141.476 3.19531 138.99 4.88272 137.657 9.23447L137.569 9.76735L116.787 102.842L97.1595 49.466C95.5609 45.2031 93.3406 43.5157 88.8113 43.5157C84.5483 43.5157 82.1504 45.9136 79.6637 52.3968L66.786 84.4577C66.6972 84.6353 66.6084 84.8129 66.5196 84.9905H63.1448C59.3259 84.9905 56.928 87.2996 56.928 90.8521C56.928 94.4934 59.3259 96.7136 63.1448 96.7136H69.8944C71.1378 96.7136 73.4469 96.3584 75.4007 93.25C75.6672 92.8059 75.9336 92.3619 76.2 91.829V91.7402C76.2889 91.4738 76.3777 91.2073 76.5553 90.9409C76.5553 90.8521 76.5553 90.8521 76.6441 90.8521C76.6441 90.7633 76.6441 90.7633 76.7329 90.6745L88.8113 58.6136H88.9001L111.813 120.693C113.057 124.245 115.277 125.044 117.941 125.044C120.783 125.044 123.359 124.068 124.247 120.249L124.957 116.963L145.917 23.2667L156.219 90.4968V90.7633C156.574 94.4045 158.617 96.6248 162.436 96.6248H173.537C177.356 96.6248 179.754 94.3157 179.754 90.7633C179.754 87.122 177.356 84.9017 173.537 84.9017Z" fill="#9FA7AD"/>
<path d="M242.188 89.3466C242.188 72.3836 231.087 54.9766 211.815 54.9766C195.651 54.9766 184.639 66.4332 181.264 80.9983C184.195 83.1298 186.06 86.5934 186.06 90.7675C186.06 95.0305 184.195 98.4941 181.086 100.626C184.017 115.279 193.964 127.003 212.525 127.003C226.291 127.003 240.767 118.21 240.767 112.526C240.767 109.24 238.636 107.375 236.504 107.375C232.153 107.375 228.156 116.967 212.614 116.967C199.47 116.967 191.832 107.553 191.832 95.4745H235.705C240.767 95.5633 242.188 93.4319 242.188 89.3466ZM191.832 86.8598C192.188 76.1137 197.427 64.5682 211.815 65.1011C224.693 65.1011 230.554 76.7353 230.554 86.8598H191.832Z" fill="#010101"/>
<path d="M300.271 17.7623C309.774 17.7623 318.389 21.67 324.694 27.7979C330.911 34.0147 334.73 42.6294 334.73 52.2211C334.73 61.7239 330.822 70.3386 324.694 76.5554C318.477 82.7722 309.863 86.6799 300.271 86.6799C290.768 86.6799 282.154 82.7722 275.937 76.5554C269.72 70.3386 265.901 61.7239 265.901 52.2211C265.901 42.7183 269.72 34.1036 275.937 27.7979C282.154 21.67 290.768 17.7623 300.271 17.7623ZM316.435 36.0574C312.261 31.8833 306.577 29.3966 300.271 29.3966C293.966 29.3966 288.282 31.9721 284.107 36.0574C279.933 40.2315 277.447 45.9155 277.447 52.2211C277.447 58.5267 280.022 64.2994 284.107 68.3847C288.282 72.5589 293.966 75.0456 300.271 75.0456C306.577 75.0456 312.349 72.47 316.435 68.3847C320.609 64.2106 323.096 58.5267 323.096 52.2211C323.184 45.9155 320.609 40.2315 316.435 36.0574ZM323.184 5.77274C323.184 2.57553 325.76 0 328.957 0C332.154 0 334.73 2.57553 334.73 5.77274V52.3099C334.73 55.5071 332.154 58.0826 328.957 58.0826C325.76 58.0826 323.184 55.5071 323.184 52.3099V5.77274Z" fill="#010101"/>
<path fill-rule="evenodd" clip-rule="evenodd" d="M355.6 37.9194C360.13 37.9194 363.86 34.1893 363.86 29.7488C363.86 25.2194 360.13 21.5781 355.6 21.5781C351.071 21.5781 347.43 25.3082 347.43 29.7488C347.341 34.1893 351.071 37.9194 355.6 37.9194Z" fill="#D22B27"/>
<path fill-rule="evenodd" clip-rule="evenodd" d="M244.942 37.9194C249.471 37.9194 253.112 34.1893 253.112 29.7488C253.112 25.2194 249.382 21.5781 244.942 21.5781C240.412 21.5781 236.771 25.3082 236.771 29.7488C236.771 34.1893 240.501 37.9194 244.942 37.9194Z" fill="#D22B27"/>
<path d="M361.373 52.218C361.373 49.0208 358.798 46.4453 355.6 46.4453C352.403 46.4453 349.828 49.0208 349.828 52.218C349.828 65.895 344.321 78.2398 335.351 87.2097C326.381 96.1797 313.948 101.686 300.36 101.686C286.683 101.686 274.249 96.1797 265.279 87.2097C264.746 86.6768 264.214 86.0552 263.681 85.5223C255.688 76.73 250.803 65.0957 250.803 52.218C250.803 50.4418 250.004 48.8432 248.76 47.7775C247.783 46.9782 246.451 46.4453 245.03 46.4453C241.833 46.4453 239.258 49.0208 239.258 52.218C239.258 52.218 239.258 52.218 239.258 52.3069C239.258 56.1257 239.613 59.8558 240.323 63.4971C244.586 69.4474 247.251 76.5524 248.139 83.9237C248.672 84.8118 249.204 85.6999 249.826 86.4992C251.958 89.6964 254.444 92.6272 257.109 95.3803C268.21 106.393 283.397 113.231 300.271 113.231C317.145 113.231 332.332 106.393 343.433 95.3803C346.098 92.6272 348.584 89.6964 350.716 86.4992C357.465 76.8188 361.373 65.0069 361.373 52.218C361.373 52.3069 361.373 52.3069 361.373 52.218Z" fill="#D22B27"/>
<path d="M62.1679 62.1699C62.0791 61.1042 61.9903 60.0384 61.8127 58.9727C61.0134 54.2657 59.4148 49.6475 57.0169 45.651C56.2176 44.3188 55.3295 42.9867 54.3525 41.8321C53.9973 41.3881 53.7309 41.0328 53.3756 40.6776C52.3099 39.523 51.2441 38.4573 50.0008 37.4804C45.205 33.4838 39.1658 31.0859 31.8833 31.0859C31.3504 31.0859 30.7287 31.0859 30.1959 31.1748C30.0182 31.1748 29.8406 31.1748 29.663 31.1748C29.3077 31.1748 28.8637 31.2636 28.5084 31.2636C28.3308 31.2636 28.1532 31.2636 27.9756 31.3524C27.6203 31.4412 27.2651 31.4412 26.821 31.53C26.6434 31.53 26.4658 31.6188 26.2882 31.6188C25.8441 31.7076 25.4 31.7964 24.956 31.8852C24.8672 31.8852 24.7784 31.8852 24.6896 31.9741C24.1567 32.0629 23.6238 32.2405 23.0909 32.4181C22.5581 32.5957 22.114 32.6845 21.67 32.8622C21.5812 32.8622 21.4923 32.951 21.4035 32.951C20.9595 33.1286 20.6042 33.2174 20.1602 33.395C20.0714 33.395 19.9825 33.4838 19.8937 33.4838C19.4497 33.6615 19.0056 33.8391 18.5616 34.1055H18.4728C10.2133 38.102 4.44057 45.8286 1.77623 55.065C1.77623 55.1538 1.77623 55.1538 1.68742 55.2426C1.59861 55.6867 1.42098 56.1307 1.33217 56.6636C1.33217 56.7524 1.33217 56.8412 1.24336 56.93C1.24336 57.0189 1.15455 57.1077 1.15455 57.1965C0.355248 60.3937 0 63.7685 0 67.2321C0 70.5182 0.266434 73.7154 0.888113 76.9126C2.93077 87.1259 8.34827 95.8294 17.6735 100.27C17.7623 100.27 17.8511 100.359 17.9399 100.359C18.3839 100.536 18.7392 100.714 19.1832 100.892C19.2721 100.98 19.4497 100.98 19.5385 101.069C19.8937 101.247 20.3378 101.336 20.7819 101.513C20.8707 101.513 21.0483 101.602 21.1371 101.602C21.67 101.78 22.114 101.957 22.6469 102.046H22.7357C23.2686 102.224 23.8902 102.313 24.4231 102.49C24.5119 102.49 24.6895 102.579 24.8672 102.579C25.3112 102.668 25.7553 102.757 26.1993 102.845C26.377 102.845 26.5546 102.934 26.821 102.934C27.1763 103.023 27.6203 103.023 27.9756 103.112C28.1532 103.112 28.4196 103.201 28.5973 103.201C29.0413 103.201 29.4854 103.29 29.8406 103.29C30.0182 103.29 30.1959 103.29 30.4623 103.29C31.084 103.29 31.7056 103.378 32.4161 103.378C32.8602 103.378 33.3042 103.378 33.7483 103.378C40.6756 103.112 47.6029 100.714 52.7539 97.6944C52.3099 97.2504 51.8658 96.8063 51.5106 96.2735C50.8889 94.7637 50.4448 92.9874 50.4448 91.1224C50.4448 89.5238 50.7113 88.014 51.2441 86.593C47.6029 89.435 42.4518 93.3427 32.5049 93.3427C19.3609 93.3427 11.8119 83.9287 11.8119 71.8503H55.6847C57.905 71.8503 59.4148 71.4063 60.3917 70.607C60.8358 70.2517 61.191 69.8077 61.4574 69.3636C61.6351 69.0084 61.7239 68.6531 61.9015 68.2979C62.0791 67.6762 62.1679 67.0545 62.1679 66.344C62.1679 66.0776 62.1679 65.9 62.1679 65.6335C62.2567 64.3014 62.2567 63.2356 62.1679 62.1699ZM11.9007 62.8804C12.256 52.4895 17.1406 41.2992 30.5511 41.1216C30.9952 41.1216 31.4392 41.1216 31.8833 41.1216C44.7609 41.1216 50.6225 52.7559 50.6225 62.8804H11.9007Z" fill="#010101"/>
</svg>
