<?xml version="1.0" encoding="utf-8"?>
<!-- Generator: Adobe Illustrator 26.0.3, SVG Export Plug-In . SVG Version: 6.00 Build 0)  -->
<svg version="1.1" id="Livello_1" xmlns="http://www.w3.org/2000/svg" xmlns:xlink="http://www.w3.org/1999/xlink" x="0px" y="0px"
	 viewBox="0 0 42 42" style="enable-background:new 0 0 42 42;" xml:space="preserve">
<style type="text/css">
	.st0{fill:#006590;}
	.st1{fill:#FFFFFF;}
</style>
<g>
	<path class="st0" d="M1,21C1,10,10,1,21,1s20,9,20,20s-9,20-20,20S1,32,1,21z"/>
	<path class="st1" d="M15.9,25.8c0,0,0.1,0,0.1,0l3.4-0.6c0,0,0.1,0,0.1-0.1l8.5-8.5c0,0,0,0,0-0.1c0,0,0-0.1,0-0.1c0,0,0-0.1,0-0.1
		c0,0,0,0,0-0.1L24.7,13c0,0-0.1-0.1-0.1-0.1c-0.1,0-0.1,0-0.1,0.1l-8.5,8.5c0,0,0,0.1-0.1,0.1L15.2,25c0,0.1,0,0.2,0,0.3
		s0.1,0.2,0.2,0.3C15.5,25.7,15.7,25.8,15.9,25.8z M17.2,22.3l7.3-7.3l1.5,1.5l-7.3,7.3l-1.8,0.3L17.2,22.3z M28.4,27.5H13.6
		c-0.4,0-0.6,0.3-0.6,0.6v0.7C13,29,13,29,13.1,29h15.8C29,29,29,29,29,28.9v-0.7C29,27.8,28.7,27.5,28.4,27.5z"/>
	<path class="st0" d="M21,40C10.5,40,2,31.5,2,21H0c0,11.6,9.4,21,21,21V40z M40,21c0,10.5-8.5,19-19,19v2c11.6,0,21-9.4,21-21H40z
		 M21,2c10.5,0,19,8.5,19,19h2C42,9.4,32.6,0,21,0V2z M21,0C9.4,0,0,9.4,0,21h2C2,10.5,10.5,2,21,2V0z"/>
</g>
</svg>
