<?xml version="1.0" encoding="utf-8"?>
<!-- Generator: Adobe Illustrator 26.0.3, SVG Export Plug-In . SVG Version: 6.00 Build 0)  -->
<svg version="1.1" id="Livello_1" xmlns="http://www.w3.org/2000/svg" xmlns:xlink="http://www.w3.org/1999/xlink" x="0px" y="0px"
	 viewBox="0 0 42 42" style="enable-background:new 0 0 42 42;" xml:space="preserve">
<style type="text/css">
	.st0{fill:#F5F5F5;}
	.st1{fill-opacity:0.25;}
	.st2{fill:#D9D9D9;}
</style>
<g>
	<path class="st0" d="M1,21C1,10,10,1,21,1l0,0c11,0,20,9,20,20l0,0c0,11-9,20-20,20l0,0C10,41,1,32,1,21L1,21z"/>
	<path class="st1" d="M17.9,14.4h-0.2c0.1,0,0.2-0.1,0.2-0.2V14.4h6.1v-0.2c0,0.1,0.1,0.2,0.2,0.2h-0.2v1.4h1.4v-1.6
		c0-0.7-0.6-1.3-1.3-1.3h-6.4c-0.7,0-1.3,0.6-1.3,1.3v1.6h1.4V14.4z M28.1,15.9H13.9c-0.4,0-0.6,0.3-0.6,0.6v0.6
		c0,0.1,0.1,0.2,0.2,0.2h1.2l0.5,10.5c0,0.7,0.6,1.2,1.3,1.2h9.1c0.7,0,1.3-0.5,1.3-1.2l0.5-10.5h1.2c0.1,0,0.2-0.1,0.2-0.2v-0.6
		C28.7,16.1,28.4,15.9,28.1,15.9z M25.4,27.6h-8.8l-0.5-10.3h9.8L25.4,27.6z"/>
	<path class="st2" d="M21,40C10.5,40,2,31.5,2,21H0c0,11.6,9.4,21,21,21V40z M40,21c0,10.5-8.5,19-19,19v2c11.6,0,21-9.4,21-21H40z
		 M21,2c10.5,0,19,8.5,19,19h2C42,9.4,32.6,0,21,0V2z M21,0C9.4,0,0,9.4,0,21h2C2,10.5,10.5,2,21,2V0z"/>
</g>
</svg>
