<?xml version="1.0" encoding="utf-8"?>
<!-- Generator: Adobe Illustrator 26.0.3, SVG Export Plug-In . SVG Version: 6.00 Build 0)  -->
<svg version="1.1" id="Livello_1" xmlns="http://www.w3.org/2000/svg" xmlns:xlink="http://www.w3.org/1999/xlink" x="0px" y="0px"
	 viewBox="0 0 42 42" style="enable-background:new 0 0 42 42;" xml:space="preserve">
<style type="text/css">
	.st0{fill:#D9F7BE;}
	.st1{fill-rule:evenodd;clip-rule:evenodd;fill:#389E0D;}
	.st2{fill:#389E0D;}
</style>
<g>
	<path class="st0" d="M1,21C1,10,10,1,21,1l0,0c11,0,20,9,20,20l0,0c0,11-9,20-20,20l0,0C10,41,1,32,1,21L1,21z"/>
	<path class="st1" d="M26.1,15.3l1.4,1.4l-8.3,8.4l-4-4.1l1.4-1.4l2.6,2.6L26.1,15.3z"/>
	<path class="st2" d="M21,40C10.5,40,2,31.5,2,21H0c0,11.6,9.4,21,21,21V40z M40,21c0,10.5-8.5,19-19,19v2c11.6,0,21-9.4,21-21H40z
		 M21,2c10.5,0,19,8.5,19,19h2C42,9.4,32.6,0,21,0V2z M21,0C9.4,0,0,9.4,0,21h2C2,10.5,10.5,2,21,2V0z"/>
</g>
</svg>
