<svg width="149" height="149" viewBox="0 0 149 149" fill="none" xmlns="http://www.w3.org/2000/svg">
<circle cx="74.5" cy="74.5" r="74.5" fill="#D22B27"/>
<mask id="mask0_7_416" style="mask-type:alpha" maskUnits="userSpaceOnUse" x="0" y="0" width="149" height="149">
<circle cx="74.5" cy="74.5" r="74.5" fill="#D22B27"/>
</mask>
<g mask="url(#mask0_7_416)">
<path d="M148.477 94.1254H119.007L108.596 25.9227L108.252 23.6006C107.133 17.1501 103.519 15 99.389 15C94.9147 15 92.5054 16.6341 91.2148 20.8484L91.1287 21.3644L70.9942 111.499L51.9783 59.809C50.4295 55.6808 48.2784 54.0466 43.8901 54.0466C39.7599 54.0466 37.4367 56.3688 35.0275 62.6472L22.551 93.6953C22.4649 93.8674 22.3789 94.0394 22.2928 94.2114H-1.47686C-5.17679 94.2114 -7.5 96.4475 -7.5 99.8878C-7.5 103.414 -5.17679 105.564 -1.47686 105.564H25.5625C26.7672 105.564 29.0043 105.22 30.8973 102.21C31.1555 101.78 31.4136 101.35 31.6717 100.834V100.748C31.7578 100.49 31.8438 100.232 32.0159 99.9738C32.0159 99.8878 32.0159 99.8878 32.102 99.8878C32.102 99.8018 32.102 99.8018 32.188 99.7158L43.8901 68.6676H43.9761L66.1757 128.786C67.3803 132.226 69.5314 133 72.1128 133C74.8662 133 77.3615 132.054 78.222 128.356L78.9103 125.173L99.2169 34.4373L109.198 99.5437V99.8018C109.542 103.328 111.521 105.478 115.221 105.478H148.477C152.177 105.478 154.5 103.242 154.5 99.8018C154.5 96.2755 152.177 94.1254 148.477 94.1254Z" fill="white"/>
</g>
</svg>
