<svg width="14" height="14" viewBox="0 0 14 14" fill="none" xmlns="http://www.w3.org/2000/svg">
<path d="M7 0C3.13438 0 0 3.13438 0 7C0 10.8656 3.13438 14 7 14C10.8656 14 14 10.8656 14 7C14 3.13438 10.8656 0 7 0ZM7 12.8125C3.79063 12.8125 1.1875 10.2094 1.1875 7C1.1875 3.79063 3.79063 1.1875 7 1.1875C10.2094 1.1875 12.8125 3.79063 12.8125 7C12.8125 10.2094 10.2094 12.8125 7 12.8125Z" fill="#006590"/>
<path d="M6.125 4.25C6.125 4.44891 6.21719 4.63968 6.38128 4.78033C6.54538 4.92098 6.76794 5 7 5C7.23206 5 7.45462 4.92098 7.61872 4.78033C7.78281 4.63968 7.875 4.44891 7.875 4.25C7.875 4.05109 7.78281 3.86032 7.61872 3.71967C7.45462 3.57902 7.23206 3.5 7 3.5C6.76794 3.5 6.54538 3.57902 6.38128 3.71967C6.21719 3.86032 6.125 4.05109 6.125 4.25V4.25ZM7.4375 6H6.5625C6.48229 6 6.41667 6.05625 6.41667 6.125V10.375C6.41667 10.4438 6.48229 10.5 6.5625 10.5H7.4375C7.51771 10.5 7.58333 10.4438 7.58333 10.375V6.125C7.58333 6.05625 7.51771 6 7.4375 6Z" fill="#006590"/>
</svg>
