<svg width="14" height="14" viewBox="0 0 14 14" fill="none" xmlns="http://www.w3.org/2000/svg">
<path d="M12.4141 10.9293C12.1194 10.2311 11.6916 9.59696 11.1547 9.06211C10.6195 8.52572 9.9854 8.09806 9.28754 7.80274C9.28129 7.79961 9.27504 7.79805 9.26879 7.79492C10.2422 7.0918 10.875 5.94649 10.875 4.6543C10.875 2.51367 9.14066 0.779297 7.00004 0.779297C4.85941 0.779297 3.12504 2.51367 3.12504 4.6543C3.12504 5.94649 3.75785 7.0918 4.73129 7.79649C4.72504 7.79961 4.71879 7.80117 4.71254 7.8043C4.01254 8.09961 3.38441 8.52305 2.84535 9.06367C2.30896 9.59894 1.8813 10.233 1.58598 10.9309C1.29585 11.6141 1.13939 12.3466 1.12504 13.0887C1.12462 13.1054 1.12755 13.1219 1.13364 13.1375C1.13974 13.153 1.14888 13.1672 1.16053 13.1791C1.17218 13.191 1.1861 13.2005 1.20147 13.207C1.21684 13.2135 1.23336 13.2168 1.25004 13.2168H2.18754C2.25629 13.2168 2.31098 13.1621 2.31254 13.0949C2.34379 11.8887 2.82816 10.759 3.68441 9.90274C4.57035 9.0168 5.74691 8.5293 7.00004 8.5293C8.25316 8.5293 9.42973 9.0168 10.3157 9.90274C11.1719 10.759 11.6563 11.8887 11.6875 13.0949C11.6891 13.1637 11.7438 13.2168 11.8125 13.2168H12.75C12.7667 13.2168 12.7832 13.2135 12.7986 13.207C12.814 13.2005 12.8279 13.191 12.8396 13.1791C12.8512 13.1672 12.8603 13.153 12.8664 13.1375C12.8725 13.1219 12.8755 13.1054 12.875 13.0887C12.8594 12.3418 12.7047 11.6152 12.4141 10.9293V10.9293ZM7.00004 7.3418C6.28285 7.3418 5.60785 7.06211 5.10004 6.5543C4.59223 6.04649 4.31254 5.37149 4.31254 4.6543C4.31254 3.93711 4.59223 3.26211 5.10004 2.7543C5.60785 2.24648 6.28285 1.9668 7.00004 1.9668C7.71723 1.9668 8.39223 2.24648 8.90004 2.7543C9.40785 3.26211 9.68754 3.93711 9.68754 4.6543C9.68754 5.37149 9.40785 6.04649 8.90004 6.5543C8.39223 7.06211 7.71723 7.3418 7.00004 7.3418Z" fill="#006590"/>
</svg>
