<svg width="48" height="48" viewBox="0 0 48 48" fill="none" xmlns="http://www.w3.org/2000/svg">
<path d="M26.4 36C26.4 37.3245 25.3281 38.4 24.0036 38.4C22.6755 38.4 21.6 37.3245 21.6 36C21.6 34.6755 22.6755 33.6 24.0036 33.6C25.3281 33.6 26.4 34.6755 26.4 36Z" fill="black"/>
<path d="M18.7624 12.2928C20.2509 10.9604 22.052 10.3 24.1386 10.3H24.5217C26.5192 10.3 28.1959 10.8566 29.5108 12.0043C30.9836 13.2655 31.7 15.0207 31.7 17.2016C31.7 18.4958 31.4174 19.6815 30.8406 20.7453L30.8385 20.7491C30.2413 21.8274 29.2935 22.9174 28.0128 24.018L28.0052 24.0246C26.9005 24.9359 26.1974 25.7716 25.8462 26.5193C25.4939 27.3173 25.299 28.5013 25.299 30.1093C25.299 30.5722 25.1303 30.9779 24.7875 31.2896L24.7852 31.2917C24.4845 31.5615 24.1236 31.7 23.7204 31.7C23.3067 31.7 22.931 31.5685 22.6227 31.2917L22.6116 31.2817L22.6011 31.2712C22.2904 30.957 22.1418 30.5579 22.1418 30.1093C22.1418 28.4084 22.3667 26.9685 22.8402 25.8104C23.3161 24.5926 24.1508 23.5087 25.3122 22.5521C26.6118 21.4452 27.4749 20.4619 27.9425 19.6017C28.3391 18.8633 28.5421 18.0123 28.5428 17.0283C28.5205 15.9423 28.1881 15.0968 27.5684 14.4517L27.5637 14.4468C26.8317 13.6639 25.7197 13.2342 24.1386 13.2342C22.2966 13.2342 21.0498 13.861 20.2812 15.0418C19.7382 15.9121 19.4572 16.9518 19.4572 18.1877C19.4572 18.6497 19.2861 19.0557 18.9649 19.3805C18.6724 19.6787 18.309 19.8421 17.8985 19.8472C17.479 19.8757 17.0924 19.7576 16.7762 19.4702L16.7674 19.4622L16.759 19.4538C16.4314 19.1262 16.3 18.6919 16.3 18.221C16.3 15.7803 17.1097 13.7846 18.7608 12.2942L18.7624 12.2928Z" fill="black"/>
<path fill-rule="evenodd" clip-rule="evenodd" d="M24 0C10.7448 0 0 10.7448 0 24C0 37.2552 10.7448 48 24 48C37.2528 48 48 37.2552 48 24C48 10.7448 37.2528 0 24 0ZM24 3.6C35.2472 3.6 44.4 12.7505 44.4 24C44.4 35.2495 35.2472 44.4 24 44.4C12.7505 44.4 3.6 35.2495 3.6 24C3.6 12.7505 12.7505 3.6 24 3.6Z" fill="black"/>
</svg>
