<svg width="14" height="14" viewBox="0 0 14 14" fill="none" xmlns="http://www.w3.org/2000/svg">
<path d="M12.3531 3.51816C12.059 2.83985 11.6348 2.2257 11.1047 1.71035C10.5728 1.19035 9.94576 0.77763 9.25781 0.494726C8.54219 0.197852 7.78281 0.0478516 7 0.0478516C6.21719 0.0478516 5.45781 0.197852 4.74219 0.493164C4.05 0.779101 3.42969 1.18848 2.89531 1.70879C2.3655 2.22442 1.94143 2.83851 1.64687 3.5166C1.34219 4.21973 1.1875 4.9666 1.1875 5.73535C1.1875 6.83848 1.45156 7.93691 1.97031 8.99629C2.3875 9.84785 2.97031 10.6775 3.70469 11.4666C4.95938 12.8135 6.275 13.6369 6.64844 13.8572C6.75444 13.9198 6.87533 13.9528 6.99844 13.9525C7.12031 13.9525 7.24063 13.9213 7.34844 13.8572C7.72188 13.6369 9.0375 12.8135 10.2922 11.4666C11.0266 10.6791 11.6094 9.84785 12.0266 8.99629C12.5484 7.93848 12.8125 6.8416 12.8125 5.73691C12.8125 4.96816 12.6578 4.22129 12.3531 3.51816ZM7 12.7541C5.97031 12.0994 2.3125 9.50723 2.3125 5.73691C2.3125 4.51973 2.79844 3.37598 3.68125 2.51348C4.56719 1.64941 5.74531 1.17285 7 1.17285C8.25469 1.17285 9.43281 1.64941 10.3188 2.51504C11.2016 3.37598 11.6875 4.51973 11.6875 5.73691C11.6875 9.50723 8.02969 12.0994 7 12.7541ZM7 3.11035C5.48125 3.11035 4.25 4.3416 4.25 5.86035C4.25 7.3791 5.48125 8.61035 7 8.61035C8.51875 8.61035 9.75 7.3791 9.75 5.86035C9.75 4.3416 8.51875 3.11035 7 3.11035ZM8.2375 7.09785C8.07519 7.26063 7.8823 7.3897 7.66992 7.47766C7.45754 7.56561 7.22987 7.61071 7 7.61035C6.53281 7.61035 6.09375 7.42754 5.7625 7.09785C5.59972 6.93554 5.47065 6.74265 5.38269 6.53027C5.29474 6.31789 5.24964 6.09022 5.25 5.86035C5.25 5.39316 5.43281 4.9541 5.7625 4.62285C6.09375 4.2916 6.53281 4.11035 7 4.11035C7.46719 4.11035 7.90625 4.2916 8.2375 4.62285C8.56875 4.9541 8.75 5.39316 8.75 5.86035C8.75 6.32754 8.56875 6.7666 8.2375 7.09785Z" fill="#006590"/>
</svg>
