<svg width="14" height="14" viewBox="0 0 14 14" fill="none" xmlns="http://www.w3.org/2000/svg">
<path d="M7.96855 9.39573C7.94506 9.37247 7.91334 9.35942 7.88027 9.35942C7.84721 9.35942 7.81549 9.37247 7.79199 9.39573L5.97637 11.2114C5.13574 12.052 3.71699 12.141 2.78887 11.2114C1.85918 10.2817 1.94824 8.86448 2.78887 8.02386L4.60449 6.20823C4.65293 6.1598 4.65293 6.08011 4.60449 6.03167L3.98262 5.4098C3.95912 5.38653 3.9274 5.37348 3.89434 5.37348C3.86127 5.37348 3.82955 5.38653 3.80605 5.4098L1.99043 7.22542C0.668555 8.5473 0.668555 10.6864 1.99043 12.0067C3.3123 13.327 5.45137 13.3285 6.77168 12.0067L8.5873 10.191C8.63574 10.1426 8.63574 10.0629 8.5873 10.0145L7.96855 9.39573ZM12.0092 1.98948C10.6873 0.667609 8.54824 0.667609 7.22793 1.98948L5.41074 3.80511C5.38748 3.8286 5.37443 3.86033 5.37443 3.89339C5.37443 3.92645 5.38748 3.95818 5.41074 3.98167L6.03105 4.60198C6.07949 4.65042 6.15918 4.65042 6.20762 4.60198L8.02324 2.78636C8.86387 1.94573 10.2826 1.85667 11.2107 2.78636C12.1404 3.71605 12.0514 5.13323 11.2107 5.97386L9.39512 7.78948C9.37185 7.81298 9.3588 7.8447 9.3588 7.87777C9.3588 7.91083 9.37185 7.94255 9.39512 7.96605L10.017 8.58792C10.0654 8.63636 10.1451 8.63636 10.1936 8.58792L12.0092 6.7723C13.3295 5.45042 13.3295 3.31136 12.0092 1.98948V1.98948ZM8.53262 4.81605C8.50912 4.79278 8.4774 4.77973 8.44434 4.77973C8.41127 4.77973 8.37955 4.79278 8.35605 4.81605L4.81699 8.35355C4.79373 8.37704 4.78068 8.40877 4.78068 8.44183C4.78068 8.47489 4.79373 8.50662 4.81699 8.53011L5.43574 9.14886C5.48418 9.1973 5.56387 9.1973 5.61231 9.14886L9.1498 5.61136C9.19824 5.56292 9.19824 5.48323 9.1498 5.4348L8.53262 4.81605Z" fill="#006590"/>
</svg>
